<svg width="37" height="37" viewBox="0 0 37 37" fill="none" xmlns="http://www.w3.org/2000/svg">
<g filter="url(#filter0_d_0_1)">
<rect x="34" y="33" width="31" height="31" rx="8" transform="rotate(-180 34 33)" fill="#F9FAFB"/>
<rect x="34" y="33" width="31" height="31" rx="8" transform="rotate(-180 34 33)" stroke="#EAECF0"/>
</g>
<path d="M27.1557 18.9147C27.0137 19.3924 26.238 20.1973 25.1724 20.1973C24.1067 20.1973 22.9684 18.9753 22.9684 17.3629V16.6059C22.9684 14.9328 24.0212 13.8037 25.1724 13.8037C26.3236 13.8037 26.9859 14.4408 27.1557 15.2336M21.0001 15C20.8199 14.3687 19.9993 13.7708 19.0535 13.8037C18.1079 13.8365 17.2615 14.5637 17.2615 15.4259C17.2615 16.288 17.8212 16.6008 19.0541 16.7332C20.2868 16.8656 20.9575 17.5783 21.0001 18.3333C21.0428 19.0884 20.3948 20.1973 19.0541 20.1973C17.8792 20.1973 17.0001 19 16.9508 18.3135M14.9844 19.0292C14.6331 19.8213 13.9045 20.1972 12.9253 20.1972C11.9461 20.1972 10.6489 19.3641 10.6489 17.2585V16.6448C10.6489 15.256 11.6103 13.8035 12.9253 13.8035C14.2405 13.8035 15.1153 15.1781 14.9844 16.8024H11.0431" stroke="#98A2B3" stroke-width="1.33333" stroke-linecap="round" stroke-linejoin="round"/>
<defs>
<filter id="filter0_d_0_1" x="0.5" y="0.5" width="36" height="36" filterUnits="userSpaceOnUse" color-interpolation-filters="sRGB">
<feFlood flood-opacity="0" result="BackgroundImageFix"/>
<feColorMatrix in="SourceAlpha" type="matrix" values="0 0 0 0 0 0 0 0 0 0 0 0 0 0 0 0 0 0 127 0" result="hardAlpha"/>
<feOffset dy="1"/>
<feGaussianBlur stdDeviation="1"/>
<feColorMatrix type="matrix" values="0 0 0 0 0.0627451 0 0 0 0 0.0941176 0 0 0 0 0.156863 0 0 0 0.05 0"/>
<feBlend mode="normal" in2="BackgroundImageFix" result="effect1_dropShadow_0_1"/>
<feBlend mode="normal" in="SourceGraphic" in2="effect1_dropShadow_0_1" result="shape"/>
</filter>
</defs>
</svg>
