<svg width="54" height="54" viewBox="0 0 54 54" fill="none" xmlns="http://www.w3.org/2000/svg">
<g filter="url(#filter0_d_0_1)">
<rect x="2" y="1" width="50" height="50" rx="8" fill="#F9FAFB"/>
<rect x="2.5" y="1.5" width="49" height="49" rx="7.5" stroke="#D0D5DD"/>
</g>
<path d="M23 17H22C21.4696 17 20.9609 17.2107 20.5858 17.5858C20.2107 17.9609 20 18.4696 20 19V24C20 24.5304 19.7893 25.0391 19.4142 25.4142C19.0391 25.7893 18.5304 26 18 26C18.5304 26 19.0391 26.2107 19.4142 26.5858C19.7893 26.9609 20 27.4696 20 28V33C20 34.1 20.9 35 22 35H23" stroke="#0E4491" stroke-width="2" stroke-linecap="round" stroke-linejoin="round"/>
<path d="M31 35H32C32.5304 35 33.0391 34.7893 33.4142 34.4142C33.7893 34.0391 34 33.5304 34 33V28C34 26.9 34.9 26 36 26C35.4696 26 34.9609 25.7893 34.5858 25.4142C34.2107 25.0391 34 24.5304 34 24V19C34 18.4696 33.7893 17.9609 33.4142 17.5858C33.0391 17.2107 32.5304 17 32 17H31" stroke="#0E4491" stroke-width="2" stroke-linecap="round" stroke-linejoin="round"/>
<defs>
<filter id="filter0_d_0_1" x="0" y="0" width="54" height="54" filterUnits="userSpaceOnUse" color-interpolation-filters="sRGB">
<feFlood flood-opacity="0" result="BackgroundImageFix"/>
<feColorMatrix in="SourceAlpha" type="matrix" values="0 0 0 0 0 0 0 0 0 0 0 0 0 0 0 0 0 0 127 0" result="hardAlpha"/>
<feOffset dy="1"/>
<feGaussianBlur stdDeviation="1"/>
<feColorMatrix type="matrix" values="0 0 0 0 0.0627451 0 0 0 0 0.0941176 0 0 0 0 0.156863 0 0 0 0.05 0"/>
<feBlend mode="normal" in2="BackgroundImageFix" result="effect1_dropShadow_0_1"/>
<feBlend mode="normal" in="SourceGraphic" in2="effect1_dropShadow_0_1" result="shape"/>
</filter>
</defs>
</svg>
