<svg width="54" height="54" viewBox="0 0 54 54" fill="none" xmlns="http://www.w3.org/2000/svg">
<g filter="url(#filter0_d_0_1)">
<rect x="2" y="1" width="50" height="50" rx="8" fill="#F9FAFB"/>
<rect x="2.5" y="1.5" width="49" height="49" rx="7.5" stroke="#D0D5DD"/>
</g>
<path d="M30 17H21C20.4696 17 19.9609 17.2107 19.5858 17.5858C19.2107 17.9609 19 18.4696 19 19V35C19 35.5304 19.2107 36.0391 19.5858 36.4142C19.9609 36.7893 20.4696 37 21 37H33C33.5304 37 34.0391 36.7893 34.4142 36.4142C34.7893 36.0391 35 35.5304 35 35V22L30 17Z" stroke="#0E4491" stroke-width="2" stroke-linecap="round" stroke-linejoin="round"/>
<path d="M29 17V21C29 21.5304 29.2107 22.0391 29.5858 22.4142C29.9609 22.7893 30.4696 23 31 23H35" stroke="#0E4491" stroke-width="2" stroke-linecap="round" stroke-linejoin="round"/>
<path d="M25 24H23" stroke="#0E4491" stroke-width="2" stroke-linecap="round" stroke-linejoin="round"/>
<path d="M31 28H23" stroke="#0E4491" stroke-width="2" stroke-linecap="round" stroke-linejoin="round"/>
<path d="M31 32H23" stroke="#0E4491" stroke-width="2" stroke-linecap="round" stroke-linejoin="round"/>
<defs>
<filter id="filter0_d_0_1" x="0" y="0" width="54" height="54" filterUnits="userSpaceOnUse" color-interpolation-filters="sRGB">
<feFlood flood-opacity="0" result="BackgroundImageFix"/>
<feColorMatrix in="SourceAlpha" type="matrix" values="0 0 0 0 0 0 0 0 0 0 0 0 0 0 0 0 0 0 127 0" result="hardAlpha"/>
<feOffset dy="1"/>
<feGaussianBlur stdDeviation="1"/>
<feColorMatrix type="matrix" values="0 0 0 0 0.0627451 0 0 0 0 0.0941176 0 0 0 0 0.156863 0 0 0 0.05 0"/>
<feBlend mode="normal" in2="BackgroundImageFix" result="effect1_dropShadow_0_1"/>
<feBlend mode="normal" in="SourceGraphic" in2="effect1_dropShadow_0_1" result="shape"/>
</filter>
</defs>
</svg>
